<?xml version="1.0" encoding="utf-8"?>
<!-- Generator: Adobe Illustrator 24.3.0, SVG Export Plug-In . SVG Version: 6.00 Build 0)  -->
<svg version="1.1" id="Layer_1" xmlns="http://www.w3.org/2000/svg" xmlns:xlink="http://www.w3.org/1999/xlink" x="0px" y="0px"
	 viewBox="0 0 358.93 361.04" style="enable-background:new 0 0 358.93 361.04;" xml:space="preserve">
<style type="text/css">
	.st0{stroke:#000000;stroke-miterlimit:10;}
</style>
<g>
	<path class="st0" d="M332.38,78.67H26.77c-10.94,0-19.81-8.87-19.81-19.81V27.05c0-10.94,8.87-19.81,19.81-19.81h305.61
		c10.94,0,19.81,8.87,19.81,19.81v31.82C352.18,69.8,343.31,78.67,332.38,78.67z"/>
	<path class="st0" d="M331.33,351.55H26.78c-10.94,0-19.81-8.87-19.81-19.81v-31.82c0-10.94,8.87-19.81,19.81-19.81h304.55
		c10.94,0,19.81,8.87,19.81,19.81v31.82C351.13,342.68,342.27,351.55,331.33,351.55z"/>
	<path class="st0" d="M331.19,215.36H29.01c-11.59,0-20.99-9.4-20.99-20.99v-29.45c0-11.59,9.4-20.99,20.99-20.99h302.18
		c11.59,0,20.99,9.4,20.99,20.99v29.45C352.18,205.96,342.79,215.36,331.19,215.36z"/>
</g>
</svg>
